# xmcd
#
# Track frame offsets: 
#        150
#        24591
#        51137
#        67936
#        87531
#        103840
#        128568
#        153383
#
# Disc length: 2281 seconds
#
# Revision: 0
# Processed by: cddbd v1.5.2PL0 Copyright (c) Steve Scherf et al.
# Submitted via: ExactAudioCopyFreeDBPlugin 1.0
#
DISCID=6208e708
DTITLE=Srilanto Acharya - Roddur
DYEAR=2006
DGENRE=Bengali Modern
TTITLE0=Rang Pencil
TTITLE1=Bhaschhe Haoway
TTITLE2=Eka Eka
TTITLE3=Ami Karo Jonyo Noi
TTITLE4=Ei Pathor-Howa Mon
TTITLE5=Swapno-Dekha
TTITLE6=Jaay Jaay Din
TTITLE7=Amar Kono Nam Dio Naa
EXTD=
EXTT0=
EXTT1=
EXTT2=
EXTT3=
EXTT4=
EXTT5=
EXTT6=
EXTT7=
PLAYORDER=
